HIERARCHY
ROOT Hips
{
	OFFSET -0.001795 -0.223333 0.028219
	CHANNELS 6 Xposition Yposition Zposition Zrotation Yrotation Xrotation 
	JOINT LeftUpLeg
	{
		OFFSET 0.069520 -0.091406 -0.006815
		CHANNELS 3 Zrotation Yrotation Xrotation
		JOINT LeftLeg
		{
			OFFSET 0.034277 -0.375199 -0.004496
			CHANNELS 3 Zrotation Yrotation Xrotation
			JOINT LeftFoot
			{
				OFFSET -0.013596 -0.397961 -0.043693
				CHANNELS 3 Zrotation Yrotation Xrotation
				JOINT LeftToe
				{
					OFFSET 0.026358 -0.055791 0.119288
					CHANNELS 3 Zrotation Yrotation Xrotation
					End Site
					{
						OFFSET 0.000000 0.000000 0.000000
					}
				}
			}
		}
	}
	JOINT RightUpLeg
	{
		OFFSET -0.067670 -0.090522 -0.004320
		CHANNELS 3 Zrotation Yrotation Xrotation
		JOINT RightLeg
		{
			OFFSET -0.038290 -0.382569 -0.008850
			CHANNELS 3 Zrotation Yrotation Xrotation
			JOINT RightFoot
			{
				OFFSET 0.015774 -0.398415 -0.042312
				CHANNELS 3 Zrotation Yrotation Xrotation
				JOINT RightToe
				{
					OFFSET -0.025372 -0.048144 0.123348
					CHANNELS 3 Zrotation Yrotation Xrotation
					End Site
					{
						OFFSET 0.000000 0.000000 0.000000
					}
				}
			}
		}
	}
	JOINT Spine
	{
		OFFSET -0.002533 0.108963 -0.026696
		CHANNELS 3 Zrotation Yrotation Xrotation
		JOINT Spine1
		{
			OFFSET 0.005487 0.135180 0.001092
			CHANNELS 3 Zrotation Yrotation Xrotation
			JOINT Spine2
			{
				OFFSET 0.001457 0.052922 0.025425
				CHANNELS 3 Zrotation Yrotation Xrotation
				JOINT Neck
				{
					OFFSET -0.002778 0.213870 -0.042857
					CHANNELS 3 Zrotation Yrotation Xrotation
					JOINT Head
					{
						OFFSET 0.005152 0.064970 0.051349
						CHANNELS 3 Zrotation Yrotation Xrotation
						End Site
						{
							OFFSET 0.000000 0.000000 0.000000
						}
					}
				}
				JOINT LeftShoulder
				{
					OFFSET 0.078845 0.121749 -0.034090
					CHANNELS 3 Zrotation Yrotation Xrotation
					JOINT LeftArm
					{
						OFFSET 0.090977 0.030469 -0.008868
						CHANNELS 3 Zrotation Yrotation Xrotation
						JOINT LeftForeArm
						{
							OFFSET 0.259612 -0.012772 -0.027456
							CHANNELS 3 Zrotation Yrotation Xrotation
							JOINT LeftHand
							{
								OFFSET 0.249234 0.008986 -0.001171
								CHANNELS 3 Zrotation Yrotation Xrotation
								End Site
								{
									OFFSET 0.000000 0.000000 0.000000
								}
							}
						}
					}
				}
				JOINT RightShoulder
				{
					OFFSET -0.081759 0.118833 -0.038615
					CHANNELS 3 Zrotation Yrotation Xrotation
					JOINT RightArm
					{
						OFFSET -0.096012 0.032551 -0.009143
						CHANNELS 3 Zrotation Yrotation Xrotation
						JOINT RightForeArm
						{
							OFFSET -0.253742 -0.013329 -0.021401
							CHANNELS 3 Zrotation Yrotation Xrotation
							JOINT RightHand
							{
								OFFSET -0.255298 0.007772 -0.005559
								CHANNELS 3 Zrotation Yrotation Xrotation
								End Site
								{
									OFFSET 0.000000 0.000000 0.000000
								}
							}
						}
					}
				}
			}
		}
	}
}
MOTION
Frames: 17
Frame Time: 0.050000
0.018281 0.960702 -0.040453 0.604728 -14.829450 15.347624 2.137207 -0.791351 -12.403221 4.260834 -0.159617 -5.144199 4.364391 10.527815 21.199101 0.000000 0.000000 0.000000 -5.239205 1.913266 -19.791700 -7.403569 0.430792 -1.737958 8.260869 6.774508 15.240477 0.000000 0.000000 0.000000 4.966986 -0.720791 5.739842 4.002542 -1.680850 2.895641 -13.447355 3.684589 -0.299967 19.864967 -11.747729 -11.846595 0.000000 0.000000 0.000000 -10.246010 -29.764582 12.933426 -52.627030 -27.847931 6.746601 3.972944 -15.315643 0.054581 0.000000 0.000000 0.000000 10.604577 16.120116 6.410787 58.944129 22.731074 6.303028 -6.416644 17.912685 -0.320758 0.000000 0.000000 0.000000 
0.016502 0.959030 -0.043507 0.695387 -14.897589 16.199737 2.882047 -0.747316 -13.113891 3.932685 -0.147544 -4.980456 2.842596 8.149906 19.365781 0.000000 0.000000 0.000000 -4.963581 2.071346 -20.972781 -8.555365 0.506317 -1.858425 9.008745 7.980159 15.616519 0.000000 0.000000 0.000000 5.091375 -0.879349 7.650457 3.439069 -1.406377 1.955202 -12.074447 2.654388 -0.508809 19.370734 -10.304927 -15.509348 0.000000 0.000000 0.000000 -12.101971 -32.565137 15.235671 -58.055088 -32.961888 10.638028 5.770945 -6.602213 -0.061488 0.000000 0.000000 0.000000 9.292387 19.449877 7.644105 65.178722 28.928155 10.963707 -6.989511 10.988245 -0.197149 0.000000 0.000000 0.000000 
0.014379 0.959741 -0.045943 0.955183 -14.961384 16.609838 3.379495 -0.713921 -13.739820 3.523318 -0.109495 -5.075422 1.811695 6.743256 20.160879 0.000000 0.000000 0.000000 -4.615699 2.176363 -21.594370 -9.474281 0.627938 -1.469123 8.906918 8.224603 15.036145 0.000000 0.000000 0.000000 4.357857 -0.863339 8.822477 3.200148 -1.298778 1.290019 -10.799573 1.259261 0.537770 18.788658 -9.636254 -17.166234 0.000000 0.000000 0.000000 -8.972361 -31.547176 14.319954 -62.244628 -33.863310 12.408895 6.415558 -7.177677 -0.107588 0.000000 0.000000 0.000000 7.103265 20.589629 7.700694 67.656216 30.032218 11.879779 -7.792462 11.578272 -0.298161 0.000000 0.000000 0.000000 
0.011792 0.961053 -0.047999 0.707498 -14.785739 17.624618 3.693416 -0.713390 -14.965024 3.634927 -0.142013 -4.706482 1.985932 7.009363 20.125979 0.000000 0.000000 0.000000 -3.981744 2.316466 -22.264349 -9.997938 0.528106 -2.615264 9.417385 8.025915 16.626737 0.000000 0.000000 0.000000 4.528075 -0.923380 9.195010 3.114631 -1.250915 0.584466 -10.125927 1.160235 1.103970 17.609277 -8.980507 -17.271682 0.000000 0.000000 0.000000 -6.352430 -30.129648 13.018416 -63.702615 -32.897463 12.317779 5.721094 -11.369138 -0.124273 0.000000 0.000000 0.000000 5.684703 19.837060 7.260292 67.925019 29.989500 11.775088 -9.383088 13.228064 -0.528869 0.000000 0.000000 0.000000 
0.009050 0.962534 -0.049715 0.721593 -14.069181 18.262046 3.842692 -0.732529 -15.715712 3.690899 -0.172577 -4.268271 1.643369 6.479367 19.060601 0.000000 0.000000 0.000000 -3.728848 2.368520 -22.686746 -10.250798 0.552307 -2.608522 9.126106 7.731318 16.455106 0.000000 0.000000 0.000000 4.740293 -1.020803 10.108137 2.817573 -1.115538 -1.288997 -9.525233 1.038778 3.067897 16.829677 -8.688643 -17.277220 0.000000 0.000000 0.000000 -4.407084 -28.521873 11.865136 -64.325421 -32.310593 12.075994 6.038516 -14.055174 -0.181452 0.000000 0.000000 0.000000 4.651661 17.807624 6.365356 68.339804 29.139206 11.031728 -10.359807 16.031813 -0.809254 0.000000 0.000000 0.000000 
0.006667 0.963578 -0.050978 0.766974 -13.152788 18.547291 3.515575 -0.816823 -16.623583 4.009092 -0.196278 -4.193602 2.266874 7.749546 20.417237 0.000000 0.000000 0.000000 -3.422427 2.409252 -23.052606 -10.045363 0.594873 -2.183832 8.051700 5.967980 16.260910 0.000000 0.000000 0.000000 4.884195 -1.083211 10.558513 3.081614 -1.231908 -1.346268 -9.115243 1.075074 3.393555 15.449636 -7.694595 -18.137248 0.000000 0.000000 0.000000 -3.854770 -26.542659 10.835665 -65.613445 -31.975062 12.190642 7.406903 -15.912520 -0.365749 0.000000 0.000000 0.000000 4.252961 15.871302 5.622818 68.207527 28.870147 10.851065 -10.839554 17.387607 -0.956206 0.000000 0.000000 0.000000 
0.004929 0.964152 -0.052021 1.212354 -12.309896 18.339594 2.989949 -0.914688 -16.870253 4.111949 -0.232450 -3.735485 2.227541 7.811489 20.012155 0.000000 0.000000 0.000000 -3.879152 2.315052 -23.011659 -10.200765 0.712289 -1.441208 7.861991 6.328001 15.500301 0.000000 0.000000 0.000000 4.893207 -1.141145 11.366272 2.762351 -1.086558 -2.502273 -8.110161 0.818894 4.371445 14.445152 -7.106732 -18.582813 0.000000 0.000000 0.000000 -4.971615 -24.822477 10.371032 -64.556442 -32.375937 12.056798 6.900245 -16.891613 -0.297614 0.000000 0.000000 0.000000 3.797448 15.298644 5.380787 67.812130 28.337229 10.288226 -12.426673 18.336821 -1.250714 0.000000 0.000000 0.000000 
0.003904 0.964353 -0.053355 1.571536 -11.869416 18.127616 2.599291 -0.973334 -16.778375 4.226750 -0.215172 -4.050062 2.114579 7.806677 20.449337 0.000000 0.000000 0.000000 -4.313399 2.224288 -22.817452 -10.249114 0.687779 -1.706705 8.105940 6.554494 15.995031 0.000000 0.000000 0.000000 4.887643 -1.162793 11.707538 2.504527 -0.988012 -2.288885 -7.577930 0.827025 4.675311 13.407864 -6.026443 -21.090372 0.000000 0.000000 0.000000 -5.386222 -23.860101 10.025952 -65.867360 -34.136643 13.545314 8.478493 -14.782010 -0.440390 0.000000 0.000000 0.000000 2.675679 14.451732 5.052185 68.687461 29.307007 11.060625 -14.112726 17.377610 -1.390784 0.000000 0.000000 0.000000 
0.003143 0.964562 -0.055203 1.965563 -11.729318 17.968213 2.293735 -1.028909 -17.181974 4.084808 -0.238595 -3.566922 2.163750 7.963336 20.755337 0.000000 0.000000 0.000000 -4.774036 2.176413 -22.929088 -10.026862 0.713946 -1.372538 7.868041 6.338594 15.720653 0.000000 0.000000 0.000000 5.130335 -1.207281 11.777352 2.473083 -0.978655 -2.133888 -7.641736 1.220500 4.357959 12.999558 -5.705764 -21.288374 0.000000 0.000000 0.000000 -6.422707 -23.535599 10.001297 -65.773425 -35.151833 14.122261 9.467755 -12.923108 -0.480835 0.000000 0.000000 0.000000 2.701153 14.329702 5.050643 67.879222 30.047014 11.498670 -14.729184 16.217617 -1.337614 0.000000 0.000000 0.000000 
0.002049 0.964759 -0.057701 2.086613 -12.410915 17.389802 2.210674 -1.019759 -17.250381 3.943081 -0.271616 -3.003956 2.842747 8.971568 22.025509 0.000000 0.000000 0.000000 -4.754772 2.158993 -22.515251 -9.771396 0.655613 -1.630379 7.911525 6.215941 15.813101 0.000000 0.000000 0.000000 4.971570 -1.187877 12.250991 2.191839 -0.859266 -2.602315 -7.595697 2.139676 4.489909 12.132432 -5.231282 -21.239087 0.000000 0.000000 0.000000 -7.689595 -23.374601 10.071016 -65.154672 -35.663653 14.130150 10.038710 -10.946735 -0.446318 0.000000 0.000000 0.000000 3.411326 14.677584 5.245767 66.652392 30.918716 11.855228 -14.756842 13.901262 -1.081221 0.000000 0.000000 0.000000 
0.000063 0.964989 -0.060333 2.451685 -13.274175 17.071029 2.442081 -0.962294 -17.099504 3.354596 -0.219957 -3.072823 2.740214 8.807184 23.060424 0.000000 0.000000 0.000000 -4.975866 2.146980 -22.311343 -9.405035 0.571709 -2.002235 7.818504 5.992876 15.642840 0.000000 0.000000 0.000000 4.681373 -1.122631 12.297344 1.809092 -0.703061 -2.637559 -7.853008 2.931145 4.179638 11.942015 -4.830471 -22.558247 0.000000 0.000000 0.000000 -8.711667 -24.361489 10.641676 -64.520357 -36.619267 14.502231 11.099362 -7.770500 -0.356807 0.000000 0.000000 0.000000 4.619747 15.091047 5.488877 65.632996 32.181642 12.516894 -14.086466 11.239146 -0.746797 0.000000 0.000000 0.000000 
-0.003276 0.965225 -0.062424 2.525476 -13.597830 17.229899 2.915302 -0.903190 -17.543192 3.179418 -0.218881 -2.859590 2.260761 8.210913 23.885577 0.000000 0.000000 0.000000 -4.558214 2.201801 -22.314644 -9.456542 0.535857 -2.301314 7.418074 5.474404 15.167340 0.000000 0.000000 0.000000 4.677766 -1.129635 12.508481 1.876896 -0.721105 -3.853305 -8.608997 3.517306 4.251630 12.331290 -4.853037 -23.224389 0.000000 0.000000 0.000000 -10.172021 -24.238182 10.767103 -63.597598 -36.474262 14.031967 9.683347 -6.032262 -0.199645 0.000000 0.000000 0.000000 5.829915 15.190284 5.643206 65.951336 32.566565 12.936613 -13.436206 10.193968 -0.589499 0.000000 0.000000 0.000000 
-0.007634 0.964661 -0.063400 2.327721 -13.865452 17.412526 3.692531 -0.793735 -18.042434 2.814530 -0.202072 -2.591548 2.346865 8.425574 25.046187 0.000000 0.000000 0.000000 -4.129199 2.255947 -22.298700 -9.032977 0.435023 -2.861018 7.252743 5.000020 15.291964 0.000000 0.000000 0.000000 4.713179 -1.101797 11.854404 1.319219 -0.497298 -3.872607 -8.788203 3.758495 3.507123 13.033211 -5.042539 -23.770476 0.000000 0.000000 0.000000 -11.800157 -24.796614 11.298184 -61.862082 -34.888941 12.528722 8.039505 -6.008535 -0.135085 0.000000 0.000000 0.000000 7.042118 15.189785 5.709009 66.438510 32.480489 13.133324 -12.500837 9.865317 -0.500473 0.000000 0.000000 0.000000 
-0.012552 0.963842 -0.062947 2.124651 -14.202892 17.650599 3.489286 -0.809689 -17.994620 3.396144 -0.260686 -2.567510 3.568527 9.909038 24.643212 0.000000 0.000000 0.000000 -3.580889 2.298330 -22.077093 -8.833795 0.356759 -3.399361 7.059256 4.908243 14.764813 0.000000 0.000000 0.000000 4.771840 -1.054478 10.809045 0.828842 -0.298909 -3.125481 -9.151585 3.586399 3.086956 13.250962 -5.245957 -23.306030 0.000000 0.000000 0.000000 -11.379058 -25.468220 11.578407 -60.590201 -33.434779 11.360210 5.838620 -8.188578 -0.073635 0.000000 0.000000 0.000000 7.094474 15.675081 5.881870 67.133047 30.881890 12.298481 -11.825533 13.661941 -0.747406 0.000000 0.000000 0.000000 
-0.017291 0.962641 -0.061328 1.471509 -14.847287 17.563421 4.071443 -0.692138 -17.191138 3.326742 -0.245343 -2.779072 4.993137 11.606073 24.105060 0.000000 0.000000 0.000000 -2.840542 2.334198 -21.587717 -7.848859 0.285815 -3.426635 6.616864 4.658128 13.677508 0.000000 0.000000 0.000000 4.623558 -0.978354 9.975877 0.390816 -0.116265 -2.693397 -9.021408 3.768345 2.402065 13.317267 -5.354883 -22.876171 0.000000 0.000000 0.000000 -11.557922 -25.393251 11.567754 -58.597982 -28.989342 8.383987 1.780332 -14.787855 0.344215 0.000000 0.000000 0.000000 8.042660 15.714185 5.896026 67.310867 27.982933 10.540493 -10.774771 17.922273 -0.936068 0.000000 0.000000 0.000000 
-0.021491 0.962729 -0.059274 1.140744 -15.995972 16.708075 4.146758 -0.625244 -15.740101 2.891542 -0.223825 -2.566716 7.192753 14.327546 23.617669 0.000000 0.000000 0.000000 -2.154224 2.362890 -21.067667 -7.157710 0.291297 -2.844936 6.359742 4.082946 13.441654 0.000000 0.000000 0.000000 3.885760 -0.827078 9.527829 -0.171825 0.118206 -2.352614 -8.755510 4.225759 2.280328 13.221243 -5.529954 -21.927160 0.000000 0.000000 0.000000 -9.698134 -24.951269 10.990971 -55.374800 -25.301196 5.844847 -3.533186 -23.906889 1.709139 0.000000 0.000000 0.000000 8.582196 14.736143 5.431104 63.722638 22.491688 6.539736 -5.668451 29.306104 -0.512484 0.000000 0.000000 0.000000 
-0.024938 0.962498 -0.057060 0.973480 -16.116794 16.145399 3.576036 -0.682507 -15.009524 3.338548 -0.271710 -2.530904 9.118782 16.890060 23.956479 0.000000 0.000000 0.000000 -2.089918 2.299800 -20.561906 -6.746699 0.260304 -2.890166 6.805033 4.473164 14.091223 0.000000 0.000000 0.000000 3.444925 -0.751904 9.384128 0.129468 -0.015031 -2.466448 -9.245147 4.376617 2.479813 12.504802 -5.543757 -20.027539 0.000000 0.000000 0.000000 -5.888300 -23.628515 9.617496 -47.283290 -18.921994 2.005783 -22.447611 -40.660252 10.320879 0.000000 0.000000 0.000000 6.543959 12.762203 4.553283 55.509036 14.000264 1.319089 12.377360 49.518773 6.947676 0.000000 0.000000 0.000000 
